# xmcd CD database file
# Copyright (C) 1996 Ti Kan
#
# Track frame offsets:
#  187
#  11882
#  24142
#  35857
#  46942
#  56390
#  68630
#  80197
#  92102
#  103080
#  114010
#  126007
#
# Disc length: 1819 seconds
#
# Revision: 2
# Processed by: cddbd v1.4b41PL1 Copyright (c) Steve Scherf et al.
# Submitted via: CDWizzard Release:4.12
#
DISCID=9507190c
DTITLE=Bobby "Blue" Bland - Two Steps From The Blues
DYEAR=1900
DGENRE=
TTITLE0=Two Steps From The Blues
TTITLE1=Cry, Cry, Cry
TTITLE2=I'm Not Ashamed
TTITLE3=Don't Cry No More
TTITLE4=Lead Me On
TTITLE5=I Pity The Fool
TTITLE6=I've Got To Forget You
TTITLE7=Little Boy Blue
TTITLE8=St. James Infirmary
TTITLE9=I'll Take Care Of You
TTITLE10=I Don't Want No Woman
TTITLE11=I've Been Wrong So Long
EXTD=MCAD-27036\n\n
EXTT0=
EXTT1=
EXTT2=
EXTT3=
EXTT4=
EXTT5=
EXTT6=
EXTT7=
EXTT8=
EXTT9=
EXTT10=
EXTT11=
PLAYORDER=
